<svg width="24" height="24" viewBox="0 0 24 24" fill="none" xmlns="http://www.w3.org/2000/svg">
<path d="M6 22C5.45 22 4.97934 21.8043 4.588 21.413C4.19667 21.0217 4.00067 20.5507 4 20V18C4 17.7167 4.096 17.4793 4.288 17.288C4.48 17.0967 4.71734 17.0007 5 17C5.28267 16.9993 5.52034 17.0953 5.713 17.288C5.90567 17.4807 6.00134 17.718 6 18V20H18V18C18 17.7167 18.096 17.4793 18.288 17.288C18.48 17.0967 18.7173 17.0007 19 17C19.2827 16.9993 19.5203 17.0953 19.713 17.288C19.9057 17.4807 20.0013 17.718 20 18V20C20 20.55 19.8043 21.021 19.413 21.413C19.0217 21.805 18.5507 22.0007 18 22H6ZM4 4C4 3.45 4.196 2.97933 4.588 2.588C4.98 2.19667 5.45067 2.00067 6 2H13.175C13.4417 2 13.696 2.05 13.938 2.15C14.18 2.25 14.3923 2.39167 14.575 2.575L19.425 7.425C19.6083 7.60833 19.75 7.821 19.85 8.063C19.95 8.305 20 8.559 20 8.825V10C20 10.2833 19.904 10.521 19.712 10.713C19.52 10.905 19.2827 11.0007 19 11C18.7173 10.9993 18.48 10.9033 18.288 10.712C18.096 10.5207 18 10.2833 18 10V9H14C13.7167 9 13.4793 8.904 13.288 8.712C13.0967 8.52 13.0007 8.28267 13 8V4H6V10C6 10.2833 5.904 10.521 5.712 10.713C5.52 10.905 5.28267 11.0007 5 11C4.71734 10.9993 4.48 10.9033 4.288 10.712C4.096 10.5207 4 10.2833 4 10V4ZM22 15H2C1.71667 15 1.47934 14.904 1.288 14.712C1.09667 14.52 1.00067 14.2827 1 14C0.999337 13.7173 1.09534 13.48 1.288 13.288C1.48067 13.096 1.718 13 2 13H22C22.2833 13 22.521 13.096 22.713 13.288C22.905 13.48 23.0007 13.7173 23 14C22.9993 14.2827 22.9033 14.5203 22.712 14.713C22.5207 14.9057 22.2833 15.0013 22 15Z" fill="black"/>
</svg>
